<svg width="135" height="44" viewBox="0 0 141 47" fill="none" xmlns="http://www.w3.org/2000/svg">
<g clip-path="url(#clip0_1369_462)">
<path d="M44.0629 46.9998C56.7171 46.9998 66.9754 36.9917 66.9754 24.6461C66.9754 12.3006 56.7171 2.29248 44.0629 2.29248C31.4087 2.29248 21.1504 12.3006 21.1504 24.6461C21.1504 36.9917 31.4087 46.9998 44.0629 46.9998Z" fill="#588CC9"/>
<path d="M3.52542 33.3817C3.12592 33.3817 2.77342 33.2441 2.46792 32.969C2.18592 32.671 2.04492 32.3156 2.04492 31.9029C2.04492 31.4902 2.18592 31.1463 2.46792 30.8712C2.77342 30.5961 3.12592 30.4585 3.52542 30.4585C3.92492 30.4585 4.26567 30.5961 4.54767 30.8712C4.85317 31.1463 5.00592 31.4902 5.00592 31.9029C5.00592 32.3156 4.85317 32.671 4.54767 32.969C4.26567 33.2441 3.92492 33.3817 3.52542 33.3817ZM12.4858 19.2129C13.0498 17.9061 13.931 16.9088 15.1295 16.221C16.328 15.5102 17.785 15.1549 19.5005 15.1549V16.84L19.0775 16.8056C17.033 16.8056 15.435 17.4361 14.2835 18.6971C13.132 19.9351 12.5563 21.6661 12.5563 23.89V33.2441H10.7938V15.2924H12.4858V19.2129ZM79.1696 15.1549C80.8851 15.1549 82.4361 15.5446 83.8226 16.3241C85.2091 17.0807 86.2901 18.1583 87.0656 19.5568C87.8646 20.9324 88.2641 22.5029 88.2641 24.2683C88.2641 26.0336 87.8646 27.6041 87.0656 28.9797C86.2901 30.3553 85.2091 31.4329 83.8226 32.2124C82.4361 32.9919 80.8851 33.3817 79.1696 33.3817C77.5246 33.3817 76.0323 33.0034 74.6928 32.2468C73.3768 31.4673 72.3546 30.3897 71.6261 29.0141V33.2441H69.9341V7.72656H71.6966V19.3849C72.4251 18.0551 73.4473 17.0234 74.7633 16.2897C76.0793 15.5331 77.5481 15.1549 79.1696 15.1549ZM79.0638 31.8341C80.4738 31.8341 81.7428 31.5132 82.8708 30.8712C83.9988 30.2292 84.8801 29.3351 85.5146 28.1888C86.1726 27.0424 86.5016 25.7356 86.5016 24.2683C86.5016 22.801 86.1726 21.4941 85.5146 20.3478C84.8801 19.2014 83.9988 18.3073 82.8708 17.6653C81.7428 17.0234 80.4738 16.7024 79.0638 16.7024C77.6538 16.7024 76.3848 17.0234 75.2568 17.6653C74.1523 18.3073 73.2711 19.2014 72.6131 20.3478C71.9786 21.4941 71.6613 22.801 71.6613 24.2683C71.6613 25.7356 71.9786 27.0424 72.6131 28.1888C73.2711 29.3351 74.1523 30.2292 75.2568 30.8712C76.3848 31.5132 77.6538 31.8341 79.0638 31.8341ZM93.7208 7.72656H95.4833V33.2441H93.7208V7.72656ZM110.103 33.3817C108.364 33.3817 106.79 32.9919 105.38 32.2124C103.993 31.4329 102.9 30.3553 102.101 28.9797C101.302 27.5812 100.903 26.0107 100.903 24.2683C100.903 22.5258 101.302 20.9668 102.101 19.5912C102.9 18.1927 103.993 17.1036 105.38 16.3241C106.79 15.5446 108.364 15.1549 110.103 15.1549C111.842 15.1549 113.405 15.5446 114.791 16.3241C116.201 17.1036 117.306 18.1927 118.105 19.5912C118.904 20.9668 119.303 22.5258 119.303 24.2683C119.303 26.0107 118.904 27.5812 118.105 28.9797C117.306 30.3553 116.201 31.4329 114.791 32.2124C113.405 32.9919 111.842 33.3817 110.103 33.3817ZM110.103 31.8341C111.513 31.8341 112.77 31.5132 113.875 30.8712C115.003 30.2292 115.884 29.3351 116.519 28.1888C117.177 27.0424 117.506 25.7356 117.506 24.2683C117.506 22.801 117.177 21.4941 116.519 20.3478C115.884 19.2014 115.003 18.3073 113.875 17.6653C112.77 17.0234 111.513 16.7024 110.103 16.7024C108.693 16.7024 107.424 17.0234 106.296 17.6653C105.192 18.3073 104.31 19.2014 103.652 20.3478C103.018 21.4941 102.701 22.801 102.701 24.2683C102.701 25.7356 103.018 27.0424 103.652 28.1888C104.31 29.3351 105.192 30.2292 106.296 30.8712C107.424 31.5132 108.693 31.8341 110.103 31.8341ZM132.068 33.3817C130.282 33.3817 128.684 32.9919 127.274 32.2124C125.864 31.4329 124.76 30.3553 123.961 28.9797C123.162 27.5812 122.762 26.0107 122.762 24.2683C122.762 22.5029 123.162 20.9324 123.961 19.5568C124.76 18.1583 125.864 17.0807 127.274 16.3241C128.684 15.5446 130.282 15.1549 132.068 15.1549C133.549 15.1549 134.888 15.4414 136.087 16.0146C137.309 16.5649 138.296 17.3788 139.048 18.4563L137.743 19.3849C137.085 18.4907 136.263 17.8258 135.276 17.3902C134.312 16.9317 133.243 16.7024 132.068 16.7024C130.635 16.7024 129.342 17.0234 128.191 17.6653C127.063 18.2844 126.17 19.1671 125.512 20.3134C124.877 21.4597 124.56 22.778 124.56 24.2683C124.56 25.7585 124.877 27.0768 125.512 28.2232C126.17 29.3695 127.063 30.2636 128.191 30.9056C129.342 31.5246 130.635 31.8341 132.068 31.8341C133.243 31.8341 134.312 31.6163 135.276 31.1807C136.263 30.7222 137.085 30.0458 137.743 29.1517L139.048 30.0802C138.296 31.1578 137.309 31.9832 136.087 32.5563C134.888 33.1066 133.549 33.3817 132.068 33.3817Z" fill="black"/>
<path d="M41.6424 24.4284H25.8151C25.8621 25.827 26.2264 27.0765 26.9079 28.177C27.5894 29.2545 28.5059 30.0914 29.6574 30.6875C30.8324 31.2836 32.1484 31.5816 33.6054 31.5816C34.8039 31.5816 35.9084 31.3753 36.9189 30.9626C37.9529 30.527 38.8106 29.8965 39.4921 29.0711L40.5144 30.206C39.7154 31.146 38.7049 31.8682 37.4829 32.3726C36.2844 32.877 34.9801 33.1292 33.5701 33.1292C31.7371 33.1292 30.1039 32.7394 28.6704 31.9599C27.2369 31.1804 26.1089 30.1028 25.2864 28.7272C24.4874 27.3516 24.0879 25.7811 24.0879 24.0158C24.0879 22.2733 24.4639 20.7143 25.2159 19.3387C25.9914 17.9401 27.0489 16.8511 28.3884 16.0716C29.7279 15.2921 31.2319 14.9023 32.9004 14.9023C34.5689 14.9023 36.0611 15.2921 37.3771 16.0716C38.7166 16.8282 39.7624 17.8943 40.5144 19.2699C41.2899 20.6455 41.6776 22.2045 41.6776 23.947L41.6424 24.4284ZM32.9004 16.4155C31.6079 16.4155 30.4446 16.7021 29.4106 17.2753C28.3766 17.8255 27.5424 18.6165 26.9079 19.6482C26.2969 20.657 25.9444 21.8033 25.8504 23.0872H39.9504C39.8799 21.8033 39.5274 20.657 38.8929 19.6482C38.2584 18.6394 37.4241 17.8484 36.3901 17.2753C35.3561 16.7021 34.1929 16.4155 32.9004 16.4155Z" fill="#FAFAFA"/>
<path d="M56.1177 14.9023C58.4207 14.9023 60.242 15.5558 61.5815 16.8626C62.921 18.1694 63.5908 20.0494 63.5908 22.5026V32.9916H61.8283V22.6401C61.8283 20.6226 61.2995 19.0865 60.242 18.0319C59.208 16.9772 57.7509 16.4499 55.8709 16.4499C53.7089 16.4499 52.0052 17.0804 50.7597 18.3414C49.5142 19.6023 48.8914 21.2989 48.8914 23.4311V32.9916H47.1289V15.0399H48.8209V18.926C49.4554 17.665 50.3954 16.6792 51.6409 15.9684C52.9099 15.2577 54.4022 14.9023 56.1177 14.9023Z" fill="#FAFAFA"/>
</g>
<defs>
<clipPath id="clip0_1369_462">
<rect width="141" height="47" fill="white"/>
</clipPath>
</defs>
</svg>
